<svg aria-hidden="true" fill="#212121" style="position: absolute; width: 0; height: 0; overflow: hidden;" version="1.1" xmlns="http://www.w3.org/2000/svg" xmlns:xlink="http://www.w3.org/1999/xlink">
<defs>
<symbol id="icon-Logo6" viewBox="0 0 64 32">
<path d="M32.257 16.601c-0.23-0.297-0.369-0.675-0.369-1.085 0-0.041 0.001-0.081 0.004-0.121l-0 0.005v-1.741c0-0.533 0.121-0.939 0.363-1.217 0.242-0.278 0.657-0.415 1.247-0.414 0.554 0 0.947 0.118 1.179 0.354 0.254 0.301 0.377 0.67 0.349 1.041v0.409h-0.99v-0.415c0-0.015 0.001-0.034 0.001-0.052 0-0.125-0.011-0.247-0.031-0.366l0.002 0.013c-0.017-0.098-0.068-0.182-0.141-0.24l-0.001-0.001c-0.089-0.060-0.198-0.095-0.316-0.095-0.015 0-0.030 0.001-0.045 0.002l0.002-0c-0.013-0.001-0.028-0.002-0.043-0.002-0.125 0-0.24 0.038-0.337 0.102l0.002-0.001c-0.082 0.066-0.141 0.158-0.164 0.263l-0.001 0.003c-0.025 0.119-0.040 0.256-0.040 0.397 0 0.012 0 0.023 0 0.035l-0-0.002v2.113c-0.016 0.203 0.028 0.408 0.127 0.593 0.051 0.064 0.118 0.113 0.195 0.143l0.003 0.001c0.080 0.031 0.169 0.043 0.256 0.033 0.012 0.001 0.027 0.002 0.042 0.002 0.115 0 0.222-0.036 0.31-0.098l-0.002 0.001c0.076-0.064 0.13-0.153 0.148-0.254l0-0.003c0.020-0.114 0.031-0.246 0.031-0.38 0-0.015-0-0.030-0-0.045l0 0.002v-0.429h0.991v0.391c0.002 0.031 0.003 0.067 0.003 0.103 0 0.376-0.13 0.722-0.348 0.994l0.002-0.003c-0.228 0.258-0.616 0.388-1.186 0.388s-1.001-0.138-1.245-0.425zM36.382 16.618c-0.251-0.27-0.376-0.665-0.376-1.188v-1.831c0-0.517 0.125-0.909 0.376-1.174s0.668-0.398 1.255-0.397c0.583 0 0.999 0.133 1.249 0.397 0.25 0.266 0.377 0.657 0.377 1.174v1.831c0 0.517-0.127 0.914-0.382 1.187s-0.668 0.409-1.245 0.409-1.003-0.138-1.256-0.408zM38.098 16.179c0.090-0.17 0.13-0.356 0.119-0.542v-2.242c0.001-0.018 0.002-0.039 0.002-0.060 0-0.172-0.044-0.335-0.121-0.476l0.003 0.005c-0.052-0.065-0.121-0.115-0.199-0.144l-0.003-0.001c-0.058-0.023-0.124-0.036-0.194-0.036-0.024 0-0.047 0.002-0.070 0.004l0.003-0c-0.020-0.003-0.043-0.004-0.067-0.004-0.070 0-0.137 0.013-0.199 0.037l0.004-0.001c-0.082 0.031-0.151 0.081-0.203 0.145l-0.001 0.001c-0.076 0.135-0.121 0.297-0.121 0.47 0 0.022 0.001 0.043 0.002 0.065l-0-0.003v2.253c-0.012 0.187 0.028 0.373 0.119 0.542 0.057 0.057 0.129 0.103 0.209 0.134 0.075 0.030 0.163 0.048 0.255 0.048s0.179-0.018 0.259-0.050l-0.005 0.002c0.081-0.032 0.151-0.077 0.209-0.134l-0 0v-0.011zM40.455 12.082h1.066l0.802 3.379 0.821-3.378h1.037l0.105 4.876h-0.767l-0.082-3.389-0.792 3.389h-0.616l-0.82-3.402-0.076 3.402h-0.775l0.097-4.876zM45.482 12.082h1.662c0.957 0 1.436 0.462 1.436 1.385 0 0.884-0.504 1.326-1.512 1.325h-0.566v2.168h-1.026l0.006-4.877zM46.902 14.166c0.101 0.011 0.204 0.004 0.302-0.024 0.097-0.027 0.187-0.071 0.262-0.13 0.118-0.165 0.17-0.358 0.148-0.551 0.001-0.016 0.001-0.035 0.001-0.054 0-0.138-0.018-0.272-0.053-0.4l0.002 0.011c-0.016-0.052-0.042-0.097-0.076-0.134l0 0c-0.036-0.040-0.079-0.073-0.127-0.097l-0.002-0.001c-0.119-0.050-0.258-0.080-0.404-0.080-0.019 0-0.038 0.001-0.056 0.001l0.003-0h-0.398v1.457h0.398zM50.059 12.082h1.101l1.13 4.877h-0.956l-0.223-1.124h-0.982l-0.229 1.124h-0.97l1.13-4.876zM51 15.269l-0.384-2.047-0.383 2.047h0.767zM53.203 12.082h0.718l1.374 2.782v-2.782h0.851v4.876h-0.683l-1.383-2.904v2.904h-0.88l0.002-4.876zM58.14 15.099l-1.142-3.010h0.962l0.697 1.934 0.654-1.934h0.942l-1.128 3.010v1.86h-0.984v-1.86zM33.84 19.091v0.255h-0.837v1.982h-0.351v-1.982h-0.841v-0.255h2.029zM36.464 21.327h-0.271c-0.002 0-0.005 0-0.008 0-0.026 0-0.049-0.008-0.069-0.022l0 0c-0.020-0.012-0.035-0.030-0.044-0.051l-0-0.001-0.242-0.531h-1.161l-0.242 0.531c-0.008 0.024-0.021 0.044-0.037 0.060l-0 0c-0.020 0.013-0.044 0.021-0.070 0.021-0.002 0-0.004-0-0.007-0h-0.27l1.026-2.236h0.356l1.038 2.228zM34.765 20.497h0.968l-0.411-0.91c-0.026-0.057-0.052-0.127-0.073-0.199l-0.003-0.012c-0.014 0.042-0.027 0.083-0.039 0.119l-0.037 0.094-0.406 0.909zM38.232 21.108c0.065 0.002 0.129 0.002 0.193 0 0.062-0.006 0.118-0.016 0.172-0.029l-0.009 0.002c0.050-0.010 0.1-0.024 0.148-0.040 0.045-0.016 0.091-0.036 0.137-0.055v-0.503h-0.41c-0.001 0-0.002 0-0.003 0-0.020 0-0.038-0.007-0.053-0.018l0 0c-0.007-0.005-0.012-0.011-0.016-0.018l-0-0c-0.003-0.006-0.005-0.013-0.005-0.020 0-0.001 0-0.001 0-0.002v0-0.172h0.796v0.857c-0.124 0.078-0.268 0.14-0.422 0.18l-0.011 0.002c-0.085 0.022-0.17 0.037-0.257 0.047-0.088 0.009-0.19 0.014-0.294 0.014-0.002 0-0.004 0-0.006 0h0c-0.004 0-0.008 0-0.013 0-0.18 0-0.354-0.031-0.515-0.087l0.011 0.003c-0.158-0.055-0.295-0.134-0.412-0.235l0.002 0.001c-0.11-0.097-0.199-0.215-0.262-0.348l-0.003-0.007c-0.060-0.132-0.094-0.287-0.094-0.449 0-0.005 0-0.010 0-0.015v0.001c-0-0.004-0-0.009-0-0.014 0-0.164 0.034-0.32 0.095-0.461l-0.003 0.008c0.059-0.132 0.149-0.253 0.264-0.354 0.117-0.101 0.257-0.179 0.411-0.232 0.175-0.057 0.362-0.086 0.549-0.083 0.095 0 0.191 0.006 0.285 0.019 0.168 0.024 0.319 0.075 0.457 0.149l-0.007-0.004c0.063 0.035 0.123 0.074 0.179 0.117l-0.098 0.138c-0.008 0.013-0.020 0.023-0.033 0.030l-0 0c-0.014 0.007-0.030 0.012-0.047 0.012h-0c-0.023-0.001-0.045-0.007-0.064-0.018l0.001 0c-0.042-0.020-0.075-0.037-0.107-0.056l0.006 0.003c-0.038-0.021-0.084-0.042-0.131-0.058l-0.006-0.002c-0.052-0.019-0.116-0.036-0.181-0.048l-0.008-0.001c-0.074-0.012-0.16-0.019-0.247-0.019-0.005 0-0.010 0-0.014 0h0.001c-0.004-0-0.008-0-0.012-0-0.137 0-0.269 0.023-0.392 0.065l0.009-0.003c-0.117 0.040-0.217 0.101-0.303 0.178l0.001-0.001c-0.081 0.076-0.146 0.169-0.188 0.273l-0.002 0.005c-0.044 0.111-0.069 0.239-0.069 0.373s0.025 0.262 0.071 0.38l-0.002-0.007c0.045 0.106 0.115 0.201 0.205 0.282 0.084 0.077 0.186 0.137 0.299 0.177 0.13 0.039 0.269 0.054 0.406 0.044zM41.501 21.072h1.12v0.255h-1.462v-2.236h0.35l-0.008 1.982zM43.786 21.327h-0.35v-2.236h0.35v2.236zM45.090 19.101c0.021 0.010 0.039 0.024 0.054 0.041l0 0 1.499 1.686c-0.001-0.012-0.002-0.026-0.002-0.040s0.001-0.028 0.002-0.042l-0 0.002v-1.666h0.306v2.246h-0.176c-0.003 0-0.007 0-0.011 0-0.023 0-0.046-0.005-0.066-0.014l0.001 0c-0.021-0.011-0.039-0.025-0.055-0.042l-0-0-1.497-1.685v1.739h-0.293v-2.236h0.182c0.020 0 0.040 0.004 0.057 0.010zM49.531 19.091v0.246h-1.243v0.738h1.007v0.237h-1.007v0.763h1.243v0.246h-1.604v-2.23h1.604zM12.777 5.278l15.574 3.818v13.378l-15.574-3.816v-13.381zM11.778 4.138v15.17l17.57 4.308v-15.169l-17.57-4.31z"></path>
<path  d="M21.195 30.66l-17.572-4.313v-15.169l17.572 4.31v15.17z"></path>
<path  d="M12.069 5.107l15.371 3.77-6.537 5.645-15.373-3.772 6.539-5.643zM11.778 4.138l-8.155 7.040 17.572 4.311 8.153-7.041-17.57-4.31zM22.183 29.806l7.165-6.187-7.165-1.758v7.946z"></path>
</symbol>
<symbol id="icon-Logo5" viewBox="0 0 64 32">
<path d="M16.155 27.062c0.147 0.167 0.225 0.376 0.222 0.59 0.001 0.013 0.001 0.029 0.001 0.045 0 0.132-0.030 0.257-0.082 0.369l0.002-0.005c-0.064 0.134-0.153 0.247-0.263 0.335l-0.002 0.001c-0.25 0.172-0.559 0.275-0.893 0.275-0.037 0-0.073-0.001-0.109-0.004l0.005 0h-1.753v-3.737h1.717c0.030-0.002 0.066-0.003 0.102-0.003 0.316 0 0.61 0.094 0.856 0.255l-0.006-0.004c0.111 0.085 0.199 0.193 0.257 0.314 0.058 0.122 0.084 0.254 0.077 0.386 0.010 0.205-0.060 0.408-0.199 0.571-0.135 0.147-0.314 0.251-0.517 0.291l-0.006 0.001c0.232 0.039 0.443 0.152 0.592 0.32zM14.099 26.498h0.734c0.167 0.011 0.332-0.033 0.467-0.124 0.053-0.044 0.096-0.1 0.124-0.163l0.001-0.003c0.022-0.048 0.034-0.105 0.034-0.164 0-0.012-0.001-0.025-0.002-0.037l0 0.002c0.001-0.009 0.001-0.020 0.001-0.032 0-0.060-0.013-0.118-0.035-0.17l0.001 0.003c-0.029-0.066-0.070-0.122-0.122-0.166l-0.001-0c-0.118-0.080-0.265-0.128-0.422-0.128-0.021 0-0.041 0.001-0.061 0.002l0.003-0h-0.723v0.981zM15.371 27.932c0.057-0.045 0.103-0.103 0.134-0.169l0.001-0.003c0.025-0.052 0.039-0.114 0.039-0.179 0-0.010-0-0.021-0.001-0.031l0 0.001c0.001-0.008 0.001-0.018 0.001-0.027 0-0.067-0.015-0.13-0.042-0.187l0.001 0.003c-0.033-0.069-0.080-0.126-0.137-0.171l-0.001-0.001c-0.126-0.086-0.282-0.137-0.45-0.137-0.017 0-0.034 0.001-0.051 0.002l0.002-0h-0.77v1.028h0.78c0.175 0.009 0.349-0.036 0.493-0.13zM19.665 28.67l-0.955-1.461h-0.359v1.461h-0.822v-3.739h1.556c0.033-0.002 0.071-0.004 0.11-0.004 0.366 0 0.704 0.121 0.977 0.325l-0.004-0.003c0.217 0.203 0.349 0.47 0.37 0.753 0.002 0.023 0.003 0.051 0.003 0.078 0 0.272-0.097 0.522-0.258 0.717l0.002-0.002c-0.193 0.199-0.449 0.336-0.735 0.379l-0.007 0.001 1.017 1.494h-0.894zM18.351 26.699h0.672c0.467 0 0.7-0.188 0.7-0.566 0.001-0.009 0.001-0.020 0.001-0.031 0-0.071-0.014-0.138-0.040-0.2l0.001 0.003c-0.032-0.076-0.077-0.14-0.133-0.193l-0-0c-0.128-0.096-0.289-0.154-0.464-0.154-0.023 0-0.046 0.001-0.068 0.003l0.003-0h-0.68l0.008 1.137zM24.157 27.917h-1.637l-0.289 0.752h-0.862l1.503-3.696h0.932l1.497 3.696h-0.861l-0.283-0.752zM23.938 27.351l-0.598-1.578-0.598 1.578h1.197zM29.779 28.67h-0.815l-1.829-2.542v2.542h-0.814v-3.739h0.814l1.829 2.557v-2.557h0.815v3.739zM34.435 27.775c-0.169 0.282-0.426 0.511-0.738 0.659-0.317 0.149-0.689 0.236-1.081 0.236-0.023 0-0.047-0-0.070-0.001l0.003 0h-1.451v-3.739h1.452c0.020-0.001 0.043-0.001 0.067-0.001 0.391 0 0.763 0.085 1.097 0.238l-0.017-0.007c0.312 0.145 0.569 0.372 0.738 0.652 0.168 0.304 0.255 0.64 0.255 0.981s-0.088 0.676-0.255 0.981zM33.502 27.685c0.221-0.232 0.358-0.546 0.36-0.892v-0c-0.002-0.346-0.139-0.66-0.361-0.892l0 0c-0.253-0.2-0.576-0.321-0.928-0.321-0.033 0-0.065 0.001-0.098 0.003l0.004-0h-0.566v2.42h0.566c0.028 0.002 0.061 0.003 0.094 0.003 0.352 0 0.675-0.121 0.931-0.323l-0.003 0.002zM24.668 4.138s10.529 3.64 10.306 8.906v8.909s-10.521-3.641-10.302-8.908l-0.004-8.906zM44.353 19.867c1.989-1.253 4.289-2.029 6.69-2.258v-2.788c-2.767 0.976-5.114 2.747-6.69 5.046z"></path>
<path  d="M43.159 20.707c1.627-3.001 4.449-5.316 7.884-6.47v-8.035s-14.995 5.184-14.678 12.684v12.683s0.668-0.232 1.72-0.667c0-0.406 0-0.814 0.048-1.226 0.31-3.482 2.117-6.708 5.026-8.97z"></path>
<path  d="M41.733 25.419c0.088-0.959 0.273-1.841 0.548-2.682l-0.024 0.086c-1.81 1.953-2.907 4.377-3.135 6.931-0.022 0.241-0.034 0.482-0.040 0.731 1.251-0.547 2.198-1.013 3.126-1.51l-0.242 0.118c-0.179-0.778-0.282-1.672-0.282-2.59 0-0.381 0.018-0.758 0.052-1.131l-0.004 0.048zM42.329 25.465c-0.029 0.308-0.046 0.667-0.046 1.029 0 0.813 0.084 1.606 0.245 2.371l-0.013-0.075c4.097-2.245 8.7-5.713 8.522-9.904v-0.365c-2.927 0.3-5.665 1.471-7.795 3.335-0.47 1.055-0.794 2.279-0.91 3.564l-0.003 0.045z"></path>
</symbol>
<symbol id="icon-Logo4" viewBox="0 0 64 32">
<path  d="M14.579 12.794h-0.002c-1.448 0-2.622 1.043-2.622 2.329v0.002c0 1.287 1.174 2.33 2.622 2.33h0.002c1.448 0 2.622-1.043 2.622-2.33v-0.001c0-1.287-1.174-2.331-2.622-2.331zM33.929 12.049c-0.004-1.787-0.805-3.5-2.227-4.764s-3.349-1.976-5.36-1.98c-2.012 0.003-3.94 0.715-5.363 1.979s-2.223 2.977-2.228 4.765v9.856s15.175-1.502 15.177-9.854v-0.002zM6.641 25.139c0.004 1.244 0.561 2.436 1.551 3.315s2.33 1.375 3.729 1.379c1.399-0.004 2.739-0.499 3.729-1.378s1.547-2.070 1.55-3.314v-6.858s-10.559 1.046-10.559 6.856zM11.921 26.367c-0.274 0-0.54-0.072-0.768-0.207-0.221-0.13-0.396-0.318-0.506-0.544l-0.003-0.008c-0.066-0.137-0.105-0.299-0.105-0.469 0-0.085 0.010-0.168 0.028-0.247l-0.001 0.007c0.053-0.238 0.185-0.458 0.378-0.629s0.44-0.289 0.708-0.336c0.081-0.015 0.175-0.024 0.27-0.024 0.19 0 0.371 0.034 0.539 0.097l-0.011-0.003c0.253 0.093 0.469 0.251 0.621 0.453s0.233 0.44 0.233 0.682c0 0.001 0 0.002 0 0.003 0 0.17-0.038 0.332-0.107 0.476l0.003-0.007c-0.075 0.157-0.175 0.29-0.298 0.399l-0.001 0.001c-0.128 0.115-0.281 0.205-0.449 0.268-0.157 0.059-0.338 0.094-0.528 0.094-0.001 0-0.002 0-0.003 0h0v-0.005zM21.573 24.168v2.576h-0.531v-2.576h0.531zM22.599 25.269v0.414h-1.171v-0.414h1.171zM22.723 24.168v0.416h-1.295v-0.416h1.295zM25.146 25.396v0.122c0 0.196-0.027 0.371-0.080 0.527-0.051 0.154-0.128 0.286-0.226 0.399l0.001-0.001c-0.097 0.109-0.212 0.191-0.347 0.249-0.126 0.055-0.274 0.086-0.428 0.086-0.005 0-0.011-0-0.016-0h0.001c-0.004 0-0.010 0-0.015 0-0.155 0-0.303-0.032-0.437-0.089l0.007 0.003c-0.136-0.060-0.252-0.144-0.346-0.248l-0.001-0.001c-0.098-0.112-0.176-0.245-0.226-0.39l-0.002-0.008c-0.051-0.15-0.080-0.324-0.080-0.504 0-0.008 0-0.016 0-0.024v0.001-0.123c0-0.197 0.027-0.373 0.080-0.527s0.128-0.288 0.225-0.398c0.098-0.109 0.214-0.193 0.347-0.251 0.135-0.057 0.283-0.086 0.444-0.086 0.163 0 0.31 0.029 0.444 0.086 0.135 0.058 0.25 0.142 0.347 0.251 0.098 0.11 0.174 0.243 0.226 0.398 0.054 0.154 0.081 0.33 0.081 0.527zM24.61 25.518v-0.126c0-0.137-0.012-0.257-0.037-0.361-0.022-0.099-0.060-0.187-0.112-0.265l0.002 0.003c-0.045-0.067-0.104-0.121-0.174-0.158l-0.003-0.001c-0.067-0.035-0.146-0.055-0.229-0.055-0.003 0-0.006 0-0.009 0h0c-0.090 0-0.169 0.018-0.239 0.054-0.072 0.039-0.131 0.093-0.174 0.158l-0.001 0.002c-0.048 0.075-0.086 0.163-0.106 0.257l-0.001 0.005c-0.024 0.102-0.038 0.22-0.038 0.341 0 0.007 0 0.014 0 0.021v-0.001 0.126c0 0.135 0.012 0.255 0.037 0.36 0.024 0.104 0.061 0.192 0.109 0.264 0.048 0.071 0.107 0.124 0.177 0.161s0.149 0.054 0.239 0.054c0.089 0 0.169-0.018 0.238-0.054 0.072-0.039 0.131-0.094 0.174-0.159l0.001-0.002c0.047-0.072 0.083-0.16 0.108-0.264s0.037-0.225 0.037-0.36zM26.869 26.070c0-0.002 0-0.004 0-0.005 0-0.042-0.008-0.083-0.022-0.121l0.001 0.002c-0.016-0.042-0.041-0.076-0.074-0.102l-0-0c-0.044-0.036-0.095-0.068-0.149-0.092l-0.004-0.002c-0.069-0.032-0.154-0.065-0.241-0.092l-0.015-0.004c-0.136-0.043-0.246-0.086-0.353-0.135l0.020 0.008c-0.105-0.048-0.196-0.103-0.279-0.167l0.003 0.002c-0.076-0.061-0.138-0.134-0.185-0.217l-0.002-0.004c-0.043-0.081-0.068-0.177-0.068-0.279 0-0.005 0-0.009 0-0.014v0.001c0-0.107 0.024-0.205 0.071-0.292 0.047-0.089 0.113-0.164 0.198-0.226 0.085-0.064 0.185-0.113 0.301-0.147 0.111-0.033 0.238-0.051 0.37-0.051 0.005 0 0.010 0 0.015 0h-0.001c0.19 0 0.356 0.034 0.497 0.103s0.251 0.162 0.329 0.281c0.079 0.12 0.119 0.255 0.119 0.409h-0.527c0-0.002 0-0.005 0-0.008 0-0.070-0.018-0.135-0.049-0.192l0.001 0.002c-0.032-0.059-0.081-0.106-0.139-0.136l-0.002-0.001c-0.064-0.031-0.138-0.049-0.217-0.049-0.007 0-0.014 0-0.021 0l0.001-0c-0.005-0-0.011-0-0.018-0-0.076 0-0.149 0.016-0.215 0.044l0.004-0.001c-0.057 0.023-0.104 0.062-0.138 0.11l-0.001 0.001c-0.029 0.043-0.046 0.095-0.046 0.152 0 0.001 0 0.003 0 0.004v-0c0 0.001 0 0.001 0 0.002 0 0.043 0.012 0.083 0.033 0.118l-0.001-0.001c0.027 0.039 0.060 0.072 0.098 0.098l0.001 0.001c0.043 0.031 0.097 0.060 0.161 0.087s0.138 0.054 0.222 0.080c0.14 0.042 0.263 0.091 0.369 0.143 0.103 0.050 0.191 0.109 0.27 0.18l-0.001-0.001c0.072 0.066 0.127 0.141 0.163 0.225s0.054 0.179 0.054 0.285c0 0.007 0 0.016 0 0.025 0 0.205-0.1 0.387-0.254 0.499l-0.002 0.001c-0.082 0.062-0.181 0.108-0.295 0.139s-0.241 0.048-0.383 0.048c-0.134-0-0.264-0.018-0.387-0.053l0.010 0.002c-0.129-0.035-0.241-0.088-0.342-0.156l0.004 0.003c-0.099-0.068-0.18-0.156-0.238-0.258l-0.002-0.004c-0.060-0.106-0.091-0.232-0.091-0.377h0.533c0 0.080 0.012 0.148 0.037 0.203 0.024 0.054 0.059 0.099 0.103 0.134l0.001 0.001c0.046 0.034 0.101 0.060 0.16 0.074l0.003 0.001c0.063 0.015 0.133 0.023 0.209 0.023 0.005 0 0.012 0 0.018 0 0.075 0 0.146-0.015 0.212-0.041l-0.004 0.001c0.105-0.042 0.177-0.143 0.177-0.26 0-0.001 0-0.002-0-0.003v0zM28.912 24.168v2.576h-0.528v-2.576h0.528zM29.704 24.168v0.416h-2.101v-0.416h2.101zM31.735 26.329v0.414h-1.371v-0.414h1.371zM30.538 24.168v2.576h-0.531v-2.576h0.531zM31.556 25.217v0.403h-1.192v-0.403h1.192zM31.733 24.168v0.416h-1.369v-0.416h1.369zM32.045 24.168h0.96c0.197 0 0.367 0.030 0.508 0.089s0.252 0.146 0.328 0.261c0.077 0.116 0.115 0.258 0.115 0.427 0 0.138-0.023 0.256-0.070 0.355s-0.113 0.181-0.195 0.245l-0.002 0.001c-0.084 0.065-0.182 0.118-0.288 0.154l-0.007 0.002-0.168 0.089h-0.835l-0.004-0.414h0.621c0.005 0 0.011 0 0.017 0 0.078 0 0.152-0.018 0.217-0.051l-0.003 0.001c0.059-0.031 0.107-0.078 0.137-0.136l0.001-0.002c0.030-0.057 0.048-0.124 0.048-0.196 0-0.003-0-0.007-0-0.010v0c0-0.004 0-0.008 0-0.012 0-0.073-0.017-0.143-0.047-0.205l0.001 0.003c-0.031-0.060-0.079-0.108-0.138-0.137l-0.002-0.001c-0.064-0.031-0.139-0.049-0.219-0.049-0.006 0-0.012 0-0.018 0l0.001-0h-0.429v2.16h-0.531v-2.576zM33.485 26.744l-0.587-1.148 0.561-0.004 0.594 1.127v0.024h-0.568zM36.27 25.826h-0.656v-0.414h0.656c0.006 0 0.014 0 0.021 0 0.082 0 0.16-0.018 0.23-0.051l-0.003 0.001c0.061-0.031 0.109-0.080 0.139-0.139l0.001-0.002c0.028-0.061 0.044-0.133 0.044-0.209s-0.016-0.147-0.045-0.212l0.001 0.003c-0.030-0.067-0.078-0.122-0.139-0.159l-0.002-0.001c-0.066-0.038-0.144-0.061-0.228-0.061-0.007 0-0.014 0-0.020 0l0.001-0h-0.472v2.16h-0.531v-2.576h1.003c0.202 0 0.374 0.036 0.518 0.11 0.145 0.072 0.256 0.171 0.333 0.299s0.115 0.273 0.115 0.437c0 0.166-0.038 0.31-0.115 0.432-0.077 0.121-0.187 0.215-0.332 0.281s-0.317 0.099-0.519 0.099zM39.33 26.329v0.414h-1.371v-0.414h1.371zM38.133 24.168v2.576h-0.531v-2.576h0.531zM39.152 25.217v0.403h-1.192v-0.403h1.192zM39.329 24.168v0.416h-1.369v-0.416h1.369zM40.827 24.168v2.576h-0.529v-2.576h0.529zM41.619 24.168v0.416h-2.101v-0.416h2.101zM43.65 26.329v0.414h-1.371v-0.414h1.371zM42.453 24.168v2.576h-0.531v-2.576h0.531zM43.472 25.217v0.403h-1.192v-0.403h1.192zM43.649 24.168v0.416h-1.369v-0.416h1.369zM43.96 24.168h0.961c0.197 0 0.367 0.030 0.507 0.089 0.143 0.059 0.253 0.146 0.33 0.261s0.115 0.258 0.115 0.427c0 0.138-0.024 0.256-0.071 0.355s-0.113 0.181-0.195 0.245l-0.002 0.001c-0.085 0.065-0.183 0.118-0.289 0.154l-0.007 0.002-0.168 0.089h-0.835l-0.003-0.414h0.621c0.005 0 0.011 0 0.018 0 0.078 0 0.152-0.018 0.217-0.051l-0.003 0.001c0.059-0.031 0.106-0.078 0.137-0.136l0.001-0.002c0.030-0.057 0.048-0.125 0.048-0.197 0-0.003-0-0.006-0-0.009v0c0-0.003 0-0.007 0-0.011 0-0.074-0.017-0.144-0.048-0.206l0.001 0.003c-0.031-0.060-0.079-0.107-0.138-0.137l-0.002-0.001c-0.064-0.031-0.139-0.049-0.219-0.049-0.006 0-0.012 0-0.018 0l0.001-0h-0.43v2.16h-0.531v-2.576zM45.4 26.744l-0.587-1.148 0.562-0.004 0.593 1.127v0.024h-0.568zM47.621 26.070c0-0.002 0-0.004 0-0.005 0-0.042-0.008-0.083-0.022-0.121l0.001 0.002c-0.016-0.041-0.041-0.076-0.074-0.102l-0-0c-0.044-0.036-0.095-0.068-0.15-0.092l-0.004-0.002c-0.069-0.032-0.154-0.065-0.241-0.092l-0.015-0.004c-0.136-0.044-0.246-0.086-0.352-0.135l0.020 0.008c-0.106-0.048-0.196-0.103-0.28-0.167l0.003 0.002c-0.076-0.061-0.138-0.134-0.185-0.217l-0.002-0.004c-0.043-0.081-0.068-0.177-0.068-0.279 0-0.005 0-0.009 0-0.014v0.001c0-0.107 0.024-0.205 0.071-0.292 0.048-0.089 0.114-0.164 0.199-0.226 0.085-0.064 0.185-0.113 0.301-0.147s0.245-0.051 0.383-0.051c0.19 0 0.356 0.034 0.497 0.103 0.142 0.068 0.251 0.162 0.329 0.281 0.079 0.12 0.119 0.255 0.119 0.409h-0.527c0-0.002 0-0.005 0-0.008 0-0.070-0.018-0.135-0.049-0.192l0.001 0.002c-0.032-0.059-0.081-0.106-0.139-0.136l-0.002-0.001c-0.064-0.031-0.138-0.049-0.217-0.049-0.007 0-0.014 0-0.020 0l0.001-0c-0.005-0-0.012-0-0.018-0-0.076 0-0.149 0.016-0.215 0.044l0.004-0.001c-0.057 0.023-0.104 0.062-0.138 0.11l-0.001 0.001c-0.029 0.043-0.046 0.095-0.046 0.152 0 0.001 0 0.003 0 0.004v-0c0 0.001 0 0.001 0 0.002 0 0.043 0.012 0.083 0.033 0.118l-0.001-0.001c0.027 0.039 0.060 0.072 0.098 0.098l0.001 0.001c0.043 0.031 0.097 0.060 0.161 0.087s0.137 0.054 0.221 0.080c0.14 0.042 0.263 0.091 0.37 0.143 0.103 0.050 0.191 0.109 0.27 0.18l-0.001-0.001c0.072 0.066 0.127 0.141 0.163 0.225s0.054 0.179 0.054 0.285c0 0.007 0 0.014 0 0.022 0 0.206-0.099 0.388-0.253 0.502l-0.002 0.001c-0.083 0.062-0.181 0.108-0.296 0.139s-0.242 0.048-0.383 0.048c-0.127 0-0.254-0.017-0.377-0.050-0.129-0.035-0.241-0.088-0.342-0.156l0.004 0.003c-0.099-0.068-0.18-0.156-0.238-0.258l-0.002-0.004c-0.060-0.106-0.091-0.232-0.091-0.377h0.533c0 0.080 0.012 0.148 0.037 0.203 0.024 0.054 0.059 0.099 0.103 0.134l0.001 0.001c0.046 0.034 0.101 0.060 0.16 0.074l0.003 0.001c0.064 0.015 0.133 0.023 0.209 0.023 0.005 0 0.012 0 0.018 0 0.075 0 0.146-0.015 0.212-0.041l-0.004 0.001c0.105-0.042 0.177-0.143 0.177-0.26 0-0.001 0-0.002-0-0.003v0z"></path>
</symbol>
<symbol id="icon-Logo3" viewBox="0 0 64 32">
<path  d="M21.981 29.698c0.020 0.001 0.038 0.008 0.051 0.021l-0-0 0.132 0.126c-0.103 0.102-0.229 0.184-0.371 0.239-0.166 0.060-0.345 0.090-0.525 0.086-0.008 0-0.018 0-0.027 0-0.167 0-0.327-0.030-0.476-0.084l0.010 0.003c-0.144-0.052-0.268-0.129-0.373-0.226l0.001 0.001c-0.102-0.096-0.183-0.212-0.238-0.342l-0.003-0.007c-0.054-0.129-0.085-0.278-0.085-0.435 0-0.004 0-0.009 0-0.013v0.001c-0-0.007-0-0.015-0-0.023 0-0.307 0.133-0.583 0.345-0.774l0.001-0.001c0.113-0.098 0.248-0.176 0.395-0.227 0.162-0.054 0.335-0.082 0.509-0.080 0.009-0 0.020-0 0.031-0 0.158 0 0.309 0.027 0.45 0.076l-0.010-0.003c0.13 0.049 0.251 0.118 0.354 0.202l-0.11 0.134c-0.008 0.010-0.017 0.018-0.027 0.024l-0 0c-0.011 0.007-0.024 0.011-0.038 0.011-0.002 0-0.004-0-0.007-0l0 0c-0.018-0.001-0.034-0.006-0.049-0.014l0.001 0-0.059-0.036-0.083-0.045c-0.075-0.037-0.163-0.065-0.254-0.080l-0.005-0.001c-0.055-0.009-0.118-0.015-0.182-0.015-0.005 0-0.010 0-0.015 0h0.001c-0.004-0-0.008-0-0.012-0-0.127 0-0.248 0.022-0.361 0.063l0.007-0.002c-0.109 0.038-0.206 0.095-0.286 0.169-0.082 0.077-0.145 0.169-0.187 0.269-0.042 0.101-0.067 0.219-0.067 0.342 0 0.004 0 0.009 0 0.013v-0.001c-0.002 0.123 0.021 0.245 0.067 0.36 0.044 0.105 0.106 0.194 0.183 0.267l0 0c0.075 0.072 0.169 0.13 0.273 0.166 0.107 0.039 0.223 0.058 0.339 0.057 0.005 0 0.010 0 0.016 0 0.065 0 0.13-0.004 0.193-0.012l-0.007 0.001c0.168-0.017 0.317-0.084 0.436-0.186l-0.001 0.001c0.017-0.014 0.038-0.022 0.062-0.023h0zM25.784 29.066c0.002 0.152-0.028 0.303-0.089 0.446-0.058 0.136-0.142 0.252-0.247 0.345l-0.001 0.001c-0.109 0.097-0.239 0.174-0.381 0.224l-0.008 0.002c-0.149 0.051-0.322 0.080-0.501 0.080s-0.351-0.029-0.512-0.083l0.011 0.003c-0.149-0.053-0.278-0.13-0.388-0.228l0.001 0.001c-0.105-0.095-0.19-0.212-0.248-0.343l-0.003-0.006c-0.056-0.132-0.089-0.285-0.089-0.446s0.033-0.314 0.092-0.453l-0.003 0.008c0.056-0.13 0.141-0.249 0.251-0.35 0.11-0.096 0.241-0.17 0.386-0.219 0.149-0.052 0.321-0.082 0.501-0.082s0.351 0.030 0.512 0.085l-0.011-0.003c0.146 0.051 0.278 0.129 0.388 0.227 0.109 0.1 0.193 0.217 0.249 0.345 0.061 0.144 0.091 0.295 0.089 0.448zM25.438 29.066c0-0.005 0-0.011 0-0.018 0-0.122-0.023-0.239-0.065-0.346l0.002 0.006c-0.080-0.206-0.244-0.365-0.449-0.435l-0.005-0.002c-0.109-0.037-0.234-0.059-0.364-0.059s-0.255 0.021-0.372 0.061l0.008-0.002c-0.108 0.038-0.201 0.096-0.279 0.169l0-0c-0.077 0.073-0.137 0.162-0.176 0.263l-0.002 0.005c-0.040 0.106-0.063 0.229-0.063 0.357s0.023 0.251 0.065 0.365l-0.002-0.007c0.080 0.206 0.245 0.364 0.451 0.433l0.005 0.002c0.234 0.077 0.493 0.077 0.728 0 0.106-0.037 0.201-0.094 0.278-0.167 0.079-0.078 0.139-0.169 0.176-0.267 0.045-0.115 0.065-0.236 0.063-0.357zM28.378 29.441l0.035 0.080c0.013-0.028 0.024-0.054 0.037-0.080 0.013-0.027 0.027-0.053 0.043-0.078l0.841-1.329c0.017-0.023 0.031-0.037 0.048-0.042s0.037-0.008 0.058-0.008c0.004 0 0.008 0 0.011 0l-0.001-0h0.249v2.162h-0.295v-1.657c-0.001-0.011-0.001-0.024-0.001-0.037s0-0.026 0.001-0.039l-0 0.002-0.847 1.348c-0.012 0.021-0.029 0.038-0.049 0.049l-0.001 0c-0.020 0.011-0.045 0.018-0.071 0.018-0.001 0-0.001 0-0.002 0h-0.048c-0.001 0-0.001 0-0.002 0-0.026 0-0.050-0.007-0.071-0.018l0.001 0c-0.021-0.011-0.038-0.028-0.049-0.048l-0-0.001-0.871-1.356v1.735h-0.284v-2.157h0.248c0.003-0 0.007-0 0.011-0 0.021 0 0.041 0.003 0.060 0.008l-0.002-0c0.021 0.009 0.036 0.024 0.046 0.042l0.859 1.33c0.017 0.024 0.031 0.050 0.043 0.077zM31.544 29.334v0.809h-0.328v-2.158h0.734c0.139-0.002 0.277 0.014 0.41 0.047 0.106 0.027 0.205 0.072 0.29 0.135 0.070 0.056 0.126 0.127 0.163 0.208l0.001 0.003c0.039 0.088 0.058 0.182 0.056 0.277 0 0.004 0 0.009 0 0.014 0 0.195-0.093 0.368-0.237 0.477l-0.002 0.001c-0.085 0.065-0.184 0.113-0.292 0.143-0.111 0.032-0.238 0.050-0.369 0.050-0.010 0-0.019-0-0.029-0l0.001 0-0.398-0.006zM31.544 29.102h0.398c0.086 0.001 0.173-0.010 0.255-0.033 0.071-0.021 0.132-0.053 0.185-0.094l-0.001 0.001c0.093-0.077 0.151-0.191 0.151-0.32 0-0.002 0-0.004-0-0.005v0c0-0.007 0.001-0.015 0.001-0.023 0-0.055-0.012-0.108-0.034-0.155l0.001 0.002c-0.028-0.059-0.066-0.108-0.114-0.147l-0.001-0.001c-0.11-0.074-0.245-0.118-0.391-0.118-0.018 0-0.036 0.001-0.054 0.002l0.002-0h-0.398v0.889zM35.969 30.146h-0.26c-0.001 0-0.003 0-0.004 0-0.025 0-0.049-0.008-0.069-0.021l0 0c-0.018-0.013-0.033-0.030-0.043-0.049l-0-0.001-0.223-0.522h-1.125l-0.232 0.522c-0.020 0.042-0.062 0.070-0.111 0.070-0.001 0-0.002-0-0.004-0h-0.261l0.988-2.162h0.342l1.001 2.162zM34.338 29.343h0.929l-0.392-0.879c-0.026-0.056-0.051-0.123-0.071-0.193l-0.003-0.010-0.038 0.113c-0.011 0.034-0.024 0.066-0.036 0.092l-0.388 0.878zM37.391 27.995c0.019 0.009 0.036 0.022 0.050 0.039l1.44 1.629v-1.678h0.295v2.162h-0.164c-0.001 0-0.002 0-0.004 0-0.023 0-0.045-0.005-0.065-0.014l0.001 0c-0.020-0.010-0.038-0.024-0.052-0.040l-0-0-1.439-1.628c0.001 0.011 0.001 0.024 0.001 0.037s-0 0.026-0.001 0.039l0-0.002v1.607h-0.295v-2.162h0.175c0.001 0 0.001 0 0.002 0 0.021 0 0.040 0.004 0.058 0.011l-0.001-0zM41.602 29.287v0.858h-0.329v-0.858l-0.91-1.302h0.295c0.002-0 0.005-0 0.007-0 0.023 0 0.045 0.007 0.064 0.019l-0-0c0.018 0.015 0.033 0.031 0.045 0.049l0.569 0.84c0.039 0.055 0.073 0.119 0.098 0.186l0.002 0.006 0.043-0.093c0.016-0.034 0.034-0.067 0.056-0.099l0.562-0.845c0.012-0.017 0.026-0.033 0.042-0.046l0-0c0.018-0.013 0.041-0.021 0.065-0.021 0.002 0 0.004 0 0.006 0h0.298l-0.912 1.307zM28.215 24.358c0.144 0.016 0.289 0.028 0.435 0.040 2.222-0.863 4.1-2.276 5.403-4.062s1.969-3.866 1.918-5.98l-2.448-2.127c0.498 2.25 0.264 4.577-0.673 6.719s-2.542 4.015-4.635 5.41z"></path>
<path  d="M27.341 24.26l0.066 0.011c2.236-1.39 3.941-3.33 4.894-5.571s1.111-4.679 0.453-6.998l-3.487-3.029c1.41 2.49 1.978 5.277 1.636 8.036-0.341 2.759-1.576 5.377-3.562 7.55zM39.166 16.854c-0.592 2.322-2.031 4.417-4.102 5.973-0.566 0.43-1.204 0.834-1.877 1.181l-0.073 0.034c1.687-0.43 3.237-1.192 4.531-2.226s2.299-2.312 2.934-3.736l-1.414-1.227z"></path>
<path  d="M38.611 16.511l-2.014-1.749c-0.039 1.994-0.691 3.943-1.89 5.644s-2.901 3.093-4.927 4.029h0.010c0.452 0 0.903-0.024 1.351-0.070 1.895-0.672 3.568-1.741 4.871-3.111s2.195-3 2.597-4.743zM27.632 7.395l-2.402-2.090c-2.147 0.721-3.993 1.988-5.298 3.636s-2.006 3.6-2.012 5.599c0.008 2.21 0.864 4.354 2.433 6.094 1.568 1.739 3.76 2.975 6.227 3.51 2.203-2.332 3.493-5.213 3.682-8.225s-0.732-5.998-2.63-8.525zM44.16 16.19c-0.008-2.622-1.211-5.134-3.345-6.988s-5.026-2.899-8.043-2.906c-0.008-0-0.018-0-0.028-0-1.449 0-2.841 0.241-4.139 0.686l0.090-0.027 14.705 12.776c0.479-1.041 0.759-2.258 0.761-3.541v-0z"></path>
</symbol>
<symbol id="icon-Logo2" viewBox="0 0 64 32">
<path  d="M30.258 3.635h-0.083c-0.127-0.007-0.254-0.010-0.38-0.013h-0.275c-0.24 0-0.484 0.006-0.727 0.018-0.008-0.001-0.018-0.001-0.027-0.001s-0.019 0-0.029 0.001l0.001-0c-2.331 0.136-4.495 0.719-6.452 1.664l0.102-0.044-0.261 0.126v13.369l0.611-0.208c0.536-0.184 1.107-0.35 1.698-0.504 1.46-0.391 3.141-0.626 4.873-0.649l0.014-0v1.757c-0.23 0.001-0.455 0.008-0.678 0.020l0.035-0.001h-0.051c-1.372 0.077-2.658 0.283-3.896 0.608l0.136-0.030c-1.701 0.433-3.193 1.031-4.578 1.796l0.098-0.050v-17.145c1.353-0.804 2.918-1.46 4.576-1.885l0.124-0.027c1.328-0.357 2.853-0.565 4.426-0.571h0.262c0.309 0.008 0.61 0.022 0.892 0.043 0.814 0.059 1.567 0.184 2.295 0.371l-0.088-0.019v1.729c-0.616-0.151-1.346-0.265-2.093-0.32l-0.044-0.003-0.044-0.004c-0.149-0.013-0.298-0.026-0.437-0.026zM33.3 5.403c0.383 0.030 0.781 0.043 1.182 0.043 1.657-0.006 3.261-0.224 4.789-0.627l-0.132 0.030c1.701-0.434 3.191-1.032 4.577-1.797l-0.099 0.050v16.839c-1.353 0.804-2.919 1.459-4.576 1.884l-0.125 0.027c-1.328 0.356-2.853 0.563-4.426 0.57h-0.004c-0.032 0-0.069 0-0.107 0-1.155 0-2.276-0.145-3.347-0.417l0.094 0.020v-16.948c0.26 0.059 0.527 0.115 0.799 0.161 0.446 0.075 0.917 0.13 1.375 0.164zM41.87 5.534l-0.611 0.205c-0.371 0.136-0.937 0.31-1.512 0.465l-0.187 0.043c-1.521 0.407-3.269 0.644-5.071 0.651h-0.004c-0.398 0-0.765-0.011-1.119-0.034l-0.487-0.032v13.752l0.418 0.036c0.388 0.034 0.788 0.051 1.191 0.051 1.423-0.006 2.799-0.195 4.11-0.543l-0.113 0.026c1.198-0.304 2.238-0.689 3.224-1.167l-0.1 0.044 0.261-0.126v-13.372z"></path>
<path  d="M21.577 27.351c-0.164-0.17-0.394-0.276-0.649-0.276-0.011 0-0.022 0-0.033 0.001l0.002-0c-0.004-0-0.009-0-0.013-0-0.137 0-0.267 0.027-0.386 0.076l0.007-0.002c-0.232 0.093-0.412 0.275-0.5 0.502l-0.002 0.006c-0.048 0.121-0.072 0.249-0.070 0.379v2.291c-0 0.011-0.001 0.024-0.001 0.037 0 0.157 0.033 0.306 0.093 0.44l-0.003-0.007c0.054 0.118 0.132 0.222 0.229 0.307 0.091 0.077 0.199 0.133 0.314 0.163 0.112 0.031 0.227 0.047 0.342 0.047 0.127 0.001 0.254-0.026 0.369-0.080 0.344-0.153 0.579-0.491 0.58-0.884v-0.256h-0.6v0.204c0 0.004 0 0.009 0 0.014 0 0.068-0.013 0.134-0.036 0.194l0.001-0.004c-0.020 0.051-0.050 0.094-0.087 0.129l-0 0c-0.069 0.053-0.156 0.086-0.25 0.088h-0c-0.010 0.001-0.023 0.002-0.035 0.002-0.101 0-0.19-0.049-0.245-0.124l-0.001-0.001c-0.050-0.081-0.080-0.179-0.080-0.284 0-0.008 0-0.016 0.001-0.024l-0 0.001v-2.136c-0.004-0.118 0.022-0.235 0.074-0.342 0.055-0.085 0.15-0.14 0.257-0.14 0.012 0 0.025 0.001 0.037 0.002l-0.001-0c0.003-0 0.007-0 0.011-0 0.105 0 0.198 0.051 0.256 0.129l0.001 0.001c0.062 0.081 0.099 0.183 0.099 0.294 0 0.005-0 0.009-0 0.014v-0.001 0.198h0.593v-0.234c0-0.003 0-0.007 0-0.010 0-0.141-0.027-0.275-0.076-0.398l0.003 0.007c-0.047-0.125-0.115-0.233-0.201-0.323l0 0zM25.134 27.324c-0.183-0.155-0.421-0.25-0.681-0.252h-0c-0.128 0.001-0.251 0.024-0.365 0.067l0.007-0.002c-0.247 0.089-0.442 0.271-0.546 0.502l-0.002 0.006c-0.060 0.139-0.091 0.291-0.088 0.444v2.197c-0.004 0.155 0.026 0.308 0.088 0.45 0.054 0.118 0.133 0.223 0.232 0.308 0.092 0.085 0.199 0.15 0.316 0.193 0.106 0.040 0.229 0.064 0.357 0.064 0.262 0 0.501-0.097 0.683-0.258l-0.001 0.001c0.094-0.085 0.17-0.187 0.223-0.302l0.002-0.006c0.062-0.141 0.091-0.295 0.088-0.45v-2.197c0-0.006 0-0.012 0-0.019 0-0.153-0.032-0.299-0.090-0.431l0.003 0.007c-0.056-0.125-0.132-0.232-0.225-0.321l-0-0zM24.855 30.286c0.001 0.010 0.001 0.022 0.001 0.034 0 0.112-0.046 0.212-0.12 0.284l-0 0c-0.076 0.064-0.174 0.103-0.282 0.103s-0.206-0.039-0.283-0.103l0.001 0.001c-0.074-0.072-0.121-0.172-0.121-0.283 0-0.012 0.001-0.025 0.002-0.037l-0 0.002v-2.197c-0.001-0.010-0.001-0.022-0.001-0.034 0-0.111 0.046-0.212 0.12-0.284l0-0c0.076-0.064 0.174-0.103 0.282-0.103s0.206 0.039 0.283 0.103l-0.001-0.001c0.074 0.072 0.12 0.172 0.12 0.284 0 0.012-0.001 0.024-0.002 0.035l0-0.002v2.198zM29.806 31.267v-4.159h-0.575l-0.757 2.201h-0.010l-0.763-2.201h-0.569v4.159h0.594v-2.53h0.011l0.581 1.788h0.296l0.586-1.788h0.011v2.53h0.594zM33.182 27.399c-0.090-0.1-0.202-0.178-0.33-0.225l-0.006-0.002c-0.121-0.041-0.261-0.064-0.407-0.064-0.009 0-0.017 0-0.026 0l0.001-0h-0.883v4.159h0.593v-1.624h0.305c0.185 0.008 0.369-0.030 0.535-0.113 0.136-0.077 0.246-0.184 0.323-0.314l0.002-0.004c0.068-0.11 0.115-0.234 0.136-0.362 0.023-0.156 0.034-0.314 0.032-0.473 0.006-0.199-0.014-0.399-0.058-0.594-0.042-0.15-0.118-0.278-0.219-0.382l0 0zM32.877 28.668c-0.003 0.079-0.023 0.154-0.056 0.22l0.001-0.003c-0.034 0.064-0.087 0.114-0.151 0.145l-0.002 0.001c-0.073 0.034-0.159 0.053-0.249 0.053-0.011 0-0.021-0-0.032-0.001l0.002 0h-0.27v-1.414h0.306c0.009-0 0.019-0.001 0.029-0.001 0.087 0 0.169 0.019 0.242 0.054l-0.003-0.001c0.061 0.036 0.109 0.089 0.138 0.152l0.001 0.002c0.031 0.068 0.050 0.147 0.052 0.231v0.277c0 0.097 0.006 0.197 0 0.286h-0.006zM35.99 27.108h-0.486l-0.917 4.159h0.593l0.174-0.894h0.808l0.174 0.894h0.592l-0.939-4.159zM35.443 29.807l0.292-1.508h0.011l0.29 1.508h-0.592zM39.819 29.614h-0.011l-0.895-2.506h-0.57v4.159h0.592v-2.501h0.012l0.906 2.501h0.558v-4.159h-0.592v2.506zM43.44 27.108l-0.477 1.653h-0.012l-0.477-1.653h-0.627l0.814 2.401v1.758h0.593v-1.758l0.814-2.401h-0.628z"></path>
</symbol>
<symbol id="icon-Logo1" viewBox="0 0 64 32">
<path  d="M22.943 4.279l4.231 4.005-7.854-0.005v19.434h20.528v-7.431l4.226 4.001v-20.005h-21.132zM39.663 19.813l-11.997-11.357h11.997v11.357zM35.938 24.871h-13.369v-13.070h0.945v12.185h12.424v0.885zM25.727 30.301l-0.494 1.017-0.494-1.017h-0.414l0.721 1.356v0.79h0.374v-0.79l0.719-1.356h-0.412zM26.347 32.447l0.174-0.5h0.831l0.175 0.5h0.389l-0.812-2.146h-0.335l-0.81 2.146h0.388zM26.937 30.757l0.311 0.89h-0.622l0.311-0.89zM28.903 31.595c-0.051 0.076-0.081 0.169-0.081 0.269 0 0.001 0 0.002 0 0.004v-0c0 0.181 0.063 0.328 0.19 0.441s0.298 0.168 0.51 0.168c0.213 0 0.395-0.058 0.549-0.173l0.121 0.143h0.415l-0.315-0.373c0.124-0.169 0.185-0.386 0.185-0.65h-0.311c0 0.145-0.030 0.276-0.090 0.394l-0.414-0.489 0.146-0.106c0.089-0.060 0.163-0.135 0.221-0.221l0.002-0.003c0.042-0.070 0.068-0.154 0.068-0.244 0-0.001 0-0.003 0-0.004v0c0-0.003 0-0.005 0-0.008 0-0.132-0.058-0.251-0.15-0.332l-0-0c-0.095-0.086-0.223-0.139-0.362-0.139-0.007 0-0.015 0-0.022 0l0.001-0c-0.173 0-0.31 0.049-0.412 0.147s-0.153 0.23-0.153 0.398c0 0.069 0.016 0.14 0.048 0.214 0.034 0.074 0.092 0.163 0.175 0.268-0.159 0.114-0.266 0.213-0.319 0.296zM29.872 32.070c-0.092 0.074-0.21 0.12-0.338 0.121h-0c-0.005 0-0.011 0-0.017 0-0.092 0-0.177-0.035-0.24-0.094l0 0c-0.059-0.058-0.096-0.14-0.096-0.23 0-0.004 0-0.008 0-0.013l-0 0.001c0-0.115 0.059-0.217 0.177-0.307l0.046-0.033 0.469 0.553zM29.487 31.119c-0.101-0.125-0.152-0.228-0.152-0.311 0-0.072 0.021-0.131 0.062-0.179 0.039-0.044 0.095-0.071 0.157-0.071 0.003 0 0.007 0 0.010 0l-0-0c0.002-0 0.005-0 0.008-0 0.059 0 0.113 0.023 0.153 0.061l-0-0c0.042 0.040 0.063 0.088 0.063 0.143 0 0.002 0 0.005 0 0.007 0 0.080-0.035 0.151-0.091 0.2l-0 0-0.046 0.037-0.164 0.112zM32.981 32.285c0.147-0.129 0.232-0.308 0.254-0.536h-0.371c-0.020 0.153-0.066 0.263-0.14 0.328s-0.184 0.099-0.33 0.099c-0.16 0-0.282-0.061-0.365-0.183s-0.124-0.299-0.124-0.531v-0.19c0.002-0.229 0.047-0.402 0.133-0.52 0.088-0.119 0.213-0.178 0.374-0.178 0.139 0 0.245 0.034 0.317 0.103s0.118 0.179 0.136 0.333h0.371c-0.024-0.235-0.107-0.417-0.252-0.545s-0.335-0.193-0.572-0.193c-0.176 0-0.331 0.042-0.465 0.126-0.135 0.086-0.241 0.208-0.306 0.351l-0.002 0.005c-0.068 0.15-0.108 0.326-0.108 0.51 0 0.009 0 0.018 0 0.026l-0-0.001v0.2c0.003 0.197 0.040 0.371 0.11 0.52s0.171 0.264 0.301 0.346c0.131 0.081 0.282 0.121 0.453 0.121 0.245 0 0.441-0.063 0.588-0.191zM35.172 31.984c0.072-0.159 0.109-0.344 0.109-0.554v-0.119c0-0.007 0-0.015 0-0.023 0-0.191-0.041-0.372-0.115-0.535l0.003 0.008c-0.068-0.152-0.176-0.275-0.311-0.36l-0.003-0.002c-0.128-0.080-0.283-0.127-0.449-0.127-0.006 0-0.011 0-0.017 0h0.001c-0.175 0-0.33 0.042-0.465 0.128-0.135 0.085-0.239 0.206-0.314 0.367-0.070 0.155-0.111 0.337-0.111 0.528 0 0.009 0 0.019 0 0.028l-0-0.001v0.121c0.001 0.205 0.038 0.386 0.112 0.543 0.075 0.158 0.18 0.279 0.316 0.365 0.136 0.085 0.292 0.127 0.465 0.127 0.176 0 0.331-0.042 0.466-0.127 0.135-0.086 0.24-0.208 0.312-0.366zM34.773 30.771c0.091 0.127 0.135 0.31 0.135 0.548v0.112c0 0.241-0.045 0.426-0.134 0.551-0.088 0.126-0.215 0.189-0.38 0.189-0.005 0-0.010 0-0.015 0-0.152 0-0.286-0.076-0.366-0.192l-0.001-0.001c-0.092-0.129-0.137-0.311-0.137-0.547v-0.124c0.002-0.231 0.048-0.409 0.138-0.535 0.081-0.116 0.213-0.19 0.363-0.19 0.006 0 0.011 0 0.017 0l-0.001-0c0.165 0 0.293 0.063 0.382 0.19z"></path>
</symbol>
<symbol id="icon-antena" viewBox="0 0 32 32">
<path fill="#212121" style="fill: var(--color3, #212121)" d="M30.773 22.098l-8.443-8.505 0.937-4.616c0.225 0.090 0.485 0.144 0.758 0.146h0.007c0.008 0 0.017 0 0.026 0 1.192 0 2.159-0.967 2.159-2.159s-0.967-2.159-2.159-2.159c-1.192 0-2.159 0.967-2.159 2.159 0 0.259 0.046 0.508 0.13 0.739l-0.005-0.015-4.96 0.606-8.091-8.133c-0.096-0.098-0.229-0.159-0.376-0.16h-0c-0.146 0.001-0.278 0.060-0.373 0.155l0-0-1.512 1.504c-0.096 0.097-0.156 0.23-0.156 0.377s0.060 0.281 0.156 0.377v0l0.814 0.825c-1.143 2.062-1.816 4.522-1.816 7.139 0 4.106 1.656 7.824 4.336 10.525l-0.001-0.001c0.043 0.041 0.092 0.074 0.146 0.097-0.032 0.164-0.051 0.353-0.052 0.546v6.188h-6.4c-1.472 0.001-2.666 1.194-2.667 2.666v1.067c0 0.295 0.239 0.534 0.534 0.534h24.534c0.294 0 0.533-0.239 0.533-0.534v-1.067c-0.002-1.472-1.195-2.665-2.666-2.666h-6.4v-2.742c1.003 0.21 2.024 0.317 3.049 0.32 2.58-0.003 5.005-0.663 7.117-1.822l-0.077 0.039 0.818 0.823c0.099 0.101 0.235 0.159 0.376 0.16 0.14-0.001 0.274-0.057 0.373-0.155l1.512-1.504c0.096-0.097 0.156-0.23 0.156-0.377s-0.060-0.281-0.156-0.377v0zM23.28 6.233c0.193-0.192 0.459-0.31 0.752-0.31 0.589 0 1.067 0.478 1.067 1.066s-0.477 1.066-1.067 1.066c-0 0-0 0-0 0h-0.004c-0.587-0.003-1.061-0.479-1.061-1.066 0-0.295 0.12-0.563 0.314-0.756l0-0h-0.002zM22.024 9.737l-0.598 2.946-1.175-1.183 1.774-1.763zM21.419 8.835l-1.92 1.909-1.486-1.493 3.406-0.416zM24.004 28.8c0.884 0 1.6 0.716 1.6 1.6v0 0.534h-23.466v-0.534c0-0.884 0.716-1.6 1.6-1.6v0h20.267zM16.538 26.666v1.067h-5.334v-1.067h5.334zM11.204 25.6v-4.053c0-1.294 1.196-2.346 2.667-2.346s2.667 1.053 2.667 2.346v4.053h-5.334zM17.604 23.904v-2.357c0-1.882-1.675-3.413-3.733-3.413-0.017-0-0.038-0-0.058-0-1.353 0-2.54 0.707-3.213 1.771l-0.009 0.016c-2.36-2.482-3.812-5.846-3.812-9.55 0-2.314 0.567-4.496 1.569-6.414l-0.036 0.077 18.602 18.709c-1.823 0.947-3.979 1.502-6.266 1.502-1.079 0-2.128-0.124-3.136-0.357l0.093 0.018zM28.893 23.22l-21.057-21.181 0.754-0.752 7.935 7.98c0.004 0 0.006 0.007 0.010 0.010l13.114 13.191-0.757 0.752z"></path>
<path fill="#2196f3" style="fill: var(--color2, #2196f3)" d="M13.876 20.267h-0.005c-0.001 0-0.002 0-0.002 0-0.884 0-1.6 0.716-1.6 1.6s0.715 1.599 1.597 1.6h0.005c0.001 0 0.001 0 0.002 0 0.884 0 1.6-0.716 1.6-1.6s-0.715-1.599-1.598-1.6h-0zM14.249 22.245c-0.096 0.096-0.229 0.155-0.376 0.155-0.295 0-0.534-0.239-0.534-0.534s0.238-0.533 0.532-0.533h0c0.293 0.001 0.531 0.239 0.531 0.533 0 0.148-0.060 0.282-0.157 0.378l-0 0h0.005z"></path>
</symbol>
<symbol id="icon-reloj" viewBox="0 0 31 32">
<path fill="#212121" style="fill: var(--color3, #212121)" d="M29.317 13.732c-0.001-7.585-6.152-13.733-13.738-13.732s-13.733 6.152-13.732 13.738c0.002 6.092 3.969 11.256 9.46 13.053l0.097 0.027c0.055 0.017 0.111 0.026 0.168 0.026 0.108 0 0.214-0.029 0.307-0.084 0.121-0.072 0.212-0.186 0.254-0.32l3.468-10.994c0.945-0.003 1.711-0.771 1.711-1.716 0-0.948-0.768-1.716-1.716-1.716-0.272 0-0.529 0.063-0.758 0.176l0.010-0.005-4.582-4.583c-0.103-0.099-0.243-0.16-0.397-0.16-0.316 0-0.572 0.256-0.572 0.572 0 0.154 0.061 0.295 0.161 0.398l-0-0 4.58 4.585c-0.108 0.216-0.172 0.471-0.172 0.741 0 0.54 0.254 1.020 0.649 1.329l0.004 0.003-3.305 10.476c-6.531-2.406-9.876-9.651-7.47-16.183s9.651-9.876 16.183-7.47c6.531 2.406 9.876 9.651 7.47 16.182-1.207 3.214-3.593 5.749-6.618 7.124l-0.079 0.032-0.357-1.682c-0.056-0.261-0.285-0.454-0.56-0.454-0.147 0-0.281 0.055-0.382 0.146l0.001-0-3.443 3.074c-0.118 0.105-0.192 0.258-0.192 0.428 0 0.254 0.166 0.47 0.395 0.544l0.004 0.001 4.396 1.403c0.052 0.018 0.113 0.028 0.176 0.028 0.316 0 0.572-0.256 0.572-0.572 0-0.042-0.005-0.084-0.013-0.124l0.001 0.004-0.351-1.65c4.961-2.131 8.372-6.975 8.372-12.615 0-0.010 0-0.021-0-0.031v0.002zM15.583 13.16c0.316 0 0.572 0.256 0.572 0.572s-0.256 0.572-0.572 0.572v0c-0.316 0-0.572-0.256-0.572-0.572s0.256-0.572 0.572-0.572v0zM17.468 26.499l1.96-1.748 0.541 2.549-2.501-0.8z"></path>
<path fill="#2196f3" style="fill: var(--color2, #2196f3)" d="M15.010 2.858v1.145c0 0.316 0.256 0.572 0.572 0.572s0.572-0.256 0.572-0.572v0-1.145c0-0.316-0.256-0.572-0.572-0.572s-0.572 0.256-0.572 0.572v0zM4.709 13.16c-0.316 0-0.572 0.256-0.572 0.572s0.256 0.572 0.572 0.572h1.145c0.316 0 0.572-0.256 0.572-0.572s-0.256-0.572-0.572-0.572h-1.145zM26.456 14.304c0.316 0 0.572-0.256 0.572-0.572s-0.256-0.572-0.572-0.572h-1.145c-0.316 0-0.572 0.256-0.572 0.572s0.256 0.572 0.572 0.572h1.145z"></path>
</symbol>
<symbol id="icon-portatil" viewBox="0 0 32 32">
<path fill="#2196f3" style="fill: var(--color2, #2196f3)" d="M14.926 14.965h1.066v4.798h-1.066v-4.798zM19.19 17.097h1.066v2.665h-1.066v-2.665zM10.661 18.696h1.066v1.066h-1.066v-1.066zM7.463 18.163h1.066v1.599h-1.066v-1.599z"></path>
<path fill="#212121" style="fill: var(--color3, #212121)" d="M1.599 28.291h25.586c0 0 0 0 0 0 0.883 0 1.599-0.716 1.599-1.599v0-2.132c0-0.883-0.716-1.599-1.599-1.599v0h-0.533v-13.294l3.028-2.868c0.207 0.104 0.452 0.166 0.711 0.166 0.888 0 1.608-0.72 1.608-1.608s-0.72-1.608-1.608-1.608c-0.888 0-1.608 0.72-1.608 1.608 0 0.247 0.056 0.481 0.155 0.69l-0.004-0.010-2.281 2.162v-1.23c0-0.883-0.716-1.599-1.599-1.599v0h-21.323c-0.883 0-1.599 0.716-1.599 1.599v0 15.992h-0.533c-0.883 0-1.599 0.716-1.599 1.599v0 2.132c0 0.883 0.716 1.599 1.599 1.599v0zM30.384 4.837c0.294 0 0.533 0.239 0.533 0.533s-0.239 0.533-0.533 0.533v0c-0.294 0-0.533-0.239-0.533-0.533s0.239-0.533 0.533-0.533v0zM3.198 6.969c0-0.294 0.239-0.533 0.533-0.533h21.323c0.294 0 0.533 0.239 0.533 0.533v2.239l-1.066 1.013v-2.185c0-0.295-0.239-0.534-0.534-0.534h-19.189c-0.294 0-0.534 0.239-0.534 0.533v13.327c0 0.294 0.239 0.533 0.534 0.533h19.189c0.295 0 0.534-0.239 0.534-0.533v-9.675l1.066-1.010v12.283h-22.389v-15.991zM7.996 13.899c-0.001 0-0.003 0-0.005 0-0.883 0-1.599 0.716-1.599 1.599s0.716 1.599 1.599 1.599c0.432 0 0.824-0.172 1.112-0.45l-0 0 1.853 0.93c0.069 0.035 0.151 0.056 0.238 0.056 0.158 0 0.3-0.069 0.398-0.178l0-0.001 3.939-4.432 3.872 2.902c0.208 0.155 0.498 0.139 0.686-0.039l3.365-3.188v8.131h-18.123v-12.261h18.123v2.661l-3.771 3.572-3.904-2.927c-0.088-0.067-0.2-0.107-0.32-0.107-0.158 0-0.3 0.069-0.398 0.178l-0 0.001-3.993 4.493-1.493-0.746c0.011-0.064 0.017-0.128 0.020-0.193 0-0.883-0.716-1.599-1.599-1.599v0zM8.529 15.498c0 0.294-0.239 0.533-0.533 0.533s-0.533-0.239-0.533-0.533v0c0-0.294 0.239-0.533 0.533-0.533s0.533 0.239 0.533 0.533v0zM11.727 24.026h5.33v0.533c0 0.294-0.238 0.533-0.533 0.533h-4.265c-0.294 0-0.533-0.239-0.533-0.533v0-0.533zM1.067 24.56c0-0.294 0.238-0.533 0.533-0.533h9.062v0.533c0 0.883 0.716 1.599 1.599 1.599v0h4.265c0.883 0 1.599-0.716 1.599-1.599v0-0.533h9.062c0.294 0 0.533 0.239 0.533 0.533v2.132c0 0.294-0.239 0.533-0.533 0.533h-25.586c-0 0-0 0-0 0-0.294 0-0.533-0.239-0.533-0.533 0 0 0 0 0 0v0-2.132z"></path>
</symbol>
<symbol id="icon-astronauta" viewBox="0 0 32 32">
<path fill="#212121" style="fill: var(--color2, #2196f3)" d="M31.974 4.524c-0.064-0.191-0.227-0.332-0.427-0.362l-0.003-0-1.911-0.278-0.855-1.731c-0.179-0.365-0.777-0.365-0.956 0l-0.855 1.731-1.911 0.278c-0.26 0.039-0.457 0.26-0.457 0.528 0 0.15 0.062 0.285 0.161 0.382l1.383 1.348-0.326 1.903c-0.034 0.2 0.048 0.402 0.212 0.522 0.166 0.12 0.383 0.135 0.562 0.040l1.709-0.899 1.709 0.899c0.072 0.038 0.157 0.061 0.247 0.061 0.295 0 0.534-0.239 0.534-0.534 0-0.031-0.003-0.062-0.008-0.092l0 0.003-0.326-1.903 1.383-1.348c0.099-0.097 0.161-0.233 0.161-0.382 0-0.059-0.009-0.115-0.027-0.168l0.001 0.004zM29.511 5.851c-0.126 0.122-0.183 0.299-0.153 0.472l0.191 1.114-1-0.526c-0.072-0.039-0.158-0.062-0.249-0.062s-0.177 0.023-0.252 0.063l0.003-0.001-1 0.526 0.191-1.114c0.005-0.027 0.008-0.059 0.008-0.091 0-0.149-0.061-0.285-0.16-0.381l-0-0-0.811-0.79 1.119-0.162c0.174-0.025 0.324-0.134 0.402-0.292l0.5-1.013 0.5 1.013c0.078 0.158 0.228 0.267 0.402 0.292l1.119 0.162-0.809 0.79zM26.134 20.522h-1.067v1.067h1.067v-1.067zM26.134 22.656h-1.067v1.066h1.067v-1.066zM27.2 21.589h-1.067v1.067h1.067v-1.067zM25.067 21.589h-1.067v1.067h1.067v-1.067zM22.4 26.389h-1.067v1.067h1.067v-1.067zM22.4 28.523h-1.067v1.067h1.067v-1.067zM23.467 27.456h-1.067v1.067h1.067v-1.067zM21.334 27.456h-1.067v1.067h1.067v-1.067zM16 24.256h-1.066v1.067h1.066v-1.067zM16 26.389h-1.066v1.067h1.066v-1.067zM17.067 25.322h-1.067v1.067h1.067v-1.067zM14.934 25.322h-1.067v1.067h1.067v-1.067zM5.867 6.122h-1.066v1.066h1.066v-1.066zM5.867 8.256h-1.066v1.066h1.066v-1.066zM6.933 7.189h-1.067v1.067h1.066v-1.067zM4.8 7.189h-1.067v1.067h1.067v-1.067z"></path>
<path fill="#212121" style="fill: var(--color3, #212121)" d="M24.715 14.16c-0.28-0.376-0.698-0.636-1.179-0.703l-0.009-0.001c-0.076-0.012-0.164-0.018-0.254-0.018-0.411 0-0.789 0.139-1.090 0.373l0.004-0.003-1.253 0.96-1.898 1.417-1.358-0.541c2.421-1.086 4.113-3.508 4.113-6.32 0-3.823-3.122-6.934-6.961-6.934s-6.961 3.11-6.961 6.934c0 1.386 0.415 2.674 1.12 3.759l-2.768-0.024c-0.009 0-0.016 0.005-0.023 0.005-0.057 0.003-0.11 0.014-0.159 0.033l0.004-0.001c-0.013 0.005-0.026 0.007-0.038 0.013-0.006 0.003-0.013 0.003-0.019 0.006l-3.233 1.596c-0 0-0.001 0-0.001 0.001l-1.893 0.91c-0.024 0.011-0.045 0.023-0.065 0.036l0.001-0.001c-0.482 0.324-0.795 0.867-0.795 1.483 0 0.297 0.073 0.577 0.201 0.823l-0.005-0.010c0.22 0.424 0.592 0.742 1.043 0.885l0.013 0.003c0.161 0.053 0.345 0.083 0.537 0.083 0.308 0 0.598-0.078 0.851-0.216l-0.009 0.005 1.388-0.738 2.264-1.169 1.357-0.008-5.442 5.415c0 0.001-0.001 0.001-0.001 0.001l-1.339 1.333c-0.303 0.299-0.49 0.714-0.49 1.173 0 0.002 0 0.004 0 0.005v-0c0 0.444 0.174 0.863 0.49 1.178 0.301 0.3 0.717 0.485 1.176 0.485 0.001 0 0.002 0 0.004 0h-0c0.428 0 0.854-0.162 1.18-0.485l1.314-1.309 1.741-1.3 0.901 0.897-3.102 3.088c-0.303 0.299-0.491 0.714-0.491 1.173 0 0.001 0 0.003 0 0.004v-0c0 0.445 0.174 0.864 0.49 1.179 0.302 0.3 0.717 0.485 1.176 0.485 0.001 0 0.002 0 0.003 0h-0c0.427 0 0.855-0.162 1.18-0.485l4.488-4.472c0.007-0.006 0.016-0.009 0.022-0.016l5.166-5.658 3.471 0.494c0.025 0.004 0.050 0.006 0.075 0.006 0.065 0 0.127-0.016 0.187-0.038 0.018-0.006 0.033-0.015 0.050-0.023 0.019-0.010 0.039-0.015 0.058-0.027l3.213-2.133c0.012-0.008 0.018-0.021 0.029-0.030 0.013-0.010 0.029-0.014 0.041-0.026l1.271-1.191c0.348-0.326 0.564-0.787 0.564-1.3 0-0.4-0.132-0.769-0.355-1.066l0.003 0.005zM2.13 17.77c-0.098 0.054-0.215 0.086-0.34 0.086-0.078 0-0.153-0.013-0.224-0.036l0.005 0.001c-0.294-0.093-0.504-0.364-0.504-0.683 0-0.235 0.114-0.444 0.289-0.575l0.002-0.001 1.314-0.632 0.316 0.924 0.133 0.389-0.992 0.527zM5.627 15.942l-1.548 0.8-0.255-0.746-0.184-0.537 2.027-1.001-0.040 1.484zM20.727 9.322c0 0.918-0.219 1.785-0.599 2.56l-4.181-1.899c-0.044-0.575-0.342-1.072-0.782-1.384l-0.006-0.004 1.463-4.861c2.378 0.757 4.105 2.975 4.105 5.588zM8.938 9.322c0-3.235 2.644-5.867 5.894-5.867 0.253 0 0.5 0.022 0.745 0.053l-1.432 4.753c-0.019 0-0.037-0.006-0.057-0.006-0 0-0.001 0-0.001 0-1.032 0-1.869 0.835-1.872 1.867v0c0.003 1.031 0.84 1.867 1.872 1.867 0 0 0.001 0 0.001 0h-0c0.695 0 1.295-0.383 1.618-0.944l3.863 1.755c-1.075 1.447-2.795 2.39-4.737 2.39-3.25 0-5.894-2.632-5.894-5.867zM14.895 10.122c-0.003 0.442-0.362 0.8-0.805 0.8-0.001 0-0.001 0-0.002 0h0c-0 0-0.001 0-0.001 0-0.443 0-0.802-0.358-0.804-0.8v-0c0-0.441 0.361-0.8 0.806-0.8s0.806 0.359 0.806 0.8zM2.464 25.146c-0.11 0.109-0.261 0.176-0.428 0.176s-0.317-0.067-0.427-0.175l0 0c-0.109-0.108-0.176-0.257-0.176-0.422s0.067-0.314 0.176-0.422l0-0 0.962-0.959 0.852 0.848-0.959 0.954zM5.678 28.88c-0.11 0.109-0.261 0.176-0.428 0.176s-0.317-0.067-0.427-0.175l0 0c-0.109-0.108-0.176-0.257-0.176-0.422s0.067-0.314 0.176-0.422l0-0 0.963-0.959 0.852 0.848-0.96 0.955zM9.16 25.411l-0.001 0.001-1.765 1.76-0.852-0.848 1.765-1.757c0.040-0.040 0.065-0.088 0.090-0.136 0.007-0.014 0.020-0.026 0.026-0.040 0.016-0.041 0.019-0.085 0.026-0.128 0.003-0.025 0.014-0.048 0.014-0.073 0-0.035-0.013-0.070-0.020-0.105-0.006-0.032-0.006-0.064-0.019-0.096-0.025-0.053-0.055-0.098-0.092-0.138l0 0c-0.010-0.012-0.014-0.026-0.025-0.038h-0.001s0-0.001-0.001-0.002l-1.607-1.6c-0.017-0.017-0.039-0.024-0.058-0.038-0.025-0.021-0.054-0.040-0.084-0.056l-0.003-0.001c-0.027-0.012-0.058-0.023-0.090-0.031l-0.003-0.001c-0.030-0.009-0.065-0.017-0.101-0.020l-0.002-0c-0.007-0-0.015-0-0.023-0-0.026 0-0.051 0.002-0.075 0.005l0.003-0c-0.036 0.005-0.069 0.009-0.104 0.021s-0.064 0.027-0.095 0.045c-0.020 0.011-0.042 0.015-0.061 0.029l-1.773 1.324-0.901-0.897 2.399-2.386 4.361 4.289-0.928 0.919zM15.979 18.394c-0.015-0.002-0.030 0.004-0.045 0.003-0.008-0-0.017-0.001-0.027-0.001-0.031 0-0.062 0.003-0.092 0.008l0.003-0c-0.030 0.006-0.059 0.011-0.088 0.021-0.037 0.013-0.069 0.029-0.098 0.048l0.002-0.001c-0.031 0.019-0.059 0.039-0.084 0.062l0-0c-0.013 0.011-0.028 0.016-0.040 0.029l-4.698 5.146-4.328-4.256 2.833-2.818c0.096-0.097 0.156-0.23 0.156-0.377 0-0.295-0.239-0.534-0.534-0.534-0.001 0-0.001 0-0.002 0h0l-2.219 0.013 0.028-1.607 3.104 0.027c1.264 1.297 3.027 2.101 4.978 2.101 0.001 0 0.002 0 0.003 0h-0c0.438 0 0.864-0.046 1.28-0.122 0.040 0.032 0.080 0.064 0.129 0.085l2.41 0.96 0.152 0.758 0.178 0.886-3.003-0.427zM20.020 18.572l-0.313-1.558 1.446-1.080 0.946 1.257-2.080 1.381zM23.774 15.741l-0.838 0.785-0.931-1.236 0.831-0.637c0.155-0.119 0.351-0.168 0.543-0.143 0.193 0.027 0.364 0.128 0.48 0.284 0.088 0.117 0.141 0.265 0.141 0.426 0 0.206-0.087 0.391-0.226 0.521l-0 0z"></path>
<path fill="#212121" style="fill: var(--color3, #212121)" d="M13.602 18.544l-2.143-2.134c-0.096-0.096-0.229-0.155-0.376-0.155s-0.28 0.059-0.376 0.155l-2.143 2.133c-0.097 0.097-0.156 0.23-0.156 0.378s0.060 0.281 0.156 0.378l-0-0 2.142 2.134c0.096 0.096 0.229 0.156 0.376 0.156s0.28-0.059 0.376-0.156v0l2.143-2.134c0.097-0.097 0.157-0.23 0.157-0.378s-0.060-0.281-0.157-0.378l-0-0zM11.083 20.303l-1.387-1.381 1.386-1.381 1.387 1.381-1.387 1.381zM17.164 5.071l-0.258 1.036c0.071 0.018 1.738 0.452 1.738 2.149h1.067c0-2.017-1.666-2.965-2.547-3.184zM19.711 9.322h-1.067v1.066h1.067v-1.066z"></path>
</symbol>
<symbol id="icon-telfono-inteligente" viewBox="0 0 20 32">
<path  d="M17 0h-14c-1.654 0-3 1.346-3 3v26c0 1.654 1.346 3 3 3h14c1.654 0 3-1.346 3-3v-26c0-1.654-1.346-3-3-3zM3 2h14c0.552 0 1 0.448 1 1v0 21h-16v-21c0-0.552 0.448-1 1-1v0zM17 30h-14c-0.552 0-1-0.448-1-1v0-3h16v3c0 0.552-0.448 1-1 1v0z"></path>
<path style="fill: var(--color4, #757575)" d="M4.708 27.478c0.18 0.163 0.293 0.399 0.293 0.66s-0.113 0.497-0.292 0.659l-0.001 0.001c-0.186 0.17-0.435 0.275-0.708 0.275s-0.522-0.104-0.709-0.275l0.001 0.001c-0.18-0.163-0.293-0.399-0.293-0.66s0.113-0.497 0.292-0.659l0.001-0.001c0.186-0.17 0.435-0.275 0.708-0.275s0.522 0.104 0.709 0.275l-0.001-0.001z"></path>
</symbol>
<symbol id="icon-sobre-activable" viewBox="0 0 43 32">
<path  d="M38.667 0h-34.667c-2.205 0-4 1.795-4 4v24c0 2.205 1.795 4 4 4h34.667c2.205 0 4-1.795 4-4v-24c0-2.205-1.795-4-4-4zM38.667 2.667c0.181 0 0.355 0.037 0.512 0.104l-17.845 15.467-17.845-15.467c0.151-0.065 0.327-0.104 0.512-0.104h34.667zM38.667 29.333h-34.667c-0.736 0-1.333-0.597-1.333-1.333v0-22.413l17.792 15.421c0.233 0.203 0.539 0.327 0.875 0.327s0.642-0.124 0.876-0.328l-0.002 0.001 17.792-15.421v22.413c0 0.736-0.597 1.333-1.333 1.333v0z"></path>
</symbol>
<symbol id="icon-facebook" viewBox="0 0 32 32">
<path d="M19 6h5v-6h-5c-3.86 0-7 3.14-7 7v3h-4v6h4v16h6v-16h5l1-6h-6v-3c0-0.542 0.458-1 1-1z"></path>
</symbol>
<symbol id="icon-instagram" viewBox="0 0 32 32">
<path d="M16 2.881c4.275 0 4.781 0.019 6.462 0.094 1.563 0.069 2.406 0.331 2.969 0.55 0.744 0.288 1.281 0.638 1.837 1.194 0.563 0.563 0.906 1.094 1.2 1.838 0.219 0.563 0.481 1.412 0.55 2.969 0.075 1.688 0.094 2.194 0.094 6.463s-0.019 4.781-0.094 6.463c-0.069 1.563-0.331 2.406-0.55 2.969-0.288 0.744-0.637 1.281-1.194 1.837-0.563 0.563-1.094 0.906-1.837 1.2-0.563 0.219-1.413 0.481-2.969 0.55-1.688 0.075-2.194 0.094-6.463 0.094s-4.781-0.019-6.463-0.094c-1.563-0.069-2.406-0.331-2.969-0.55-0.744-0.288-1.281-0.637-1.838-1.194-0.563-0.563-0.906-1.094-1.2-1.837-0.219-0.563-0.481-1.413-0.55-2.969-0.075-1.688-0.094-2.194-0.094-6.463s0.019-4.781 0.094-6.463c0.069-1.563 0.331-2.406 0.55-2.969 0.288-0.744 0.638-1.281 1.194-1.838 0.563-0.563 1.094-0.906 1.838-1.2 0.563-0.219 1.412-0.481 2.969-0.55 1.681-0.075 2.188-0.094 6.463-0.094zM16 0c-4.344 0-4.887 0.019-6.594 0.094-1.7 0.075-2.869 0.35-3.881 0.744-1.056 0.412-1.95 0.956-2.837 1.85-0.894 0.888-1.438 1.781-1.85 2.831-0.394 1.019-0.669 2.181-0.744 3.881-0.075 1.713-0.094 2.256-0.094 6.6s0.019 4.887 0.094 6.594c0.075 1.7 0.35 2.869 0.744 3.881 0.413 1.056 0.956 1.95 1.85 2.837 0.887 0.887 1.781 1.438 2.831 1.844 1.019 0.394 2.181 0.669 3.881 0.744 1.706 0.075 2.25 0.094 6.594 0.094s4.888-0.019 6.594-0.094c1.7-0.075 2.869-0.35 3.881-0.744 1.050-0.406 1.944-0.956 2.831-1.844s1.438-1.781 1.844-2.831c0.394-1.019 0.669-2.181 0.744-3.881 0.075-1.706 0.094-2.25 0.094-6.594s-0.019-4.887-0.094-6.594c-0.075-1.7-0.35-2.869-0.744-3.881-0.394-1.063-0.938-1.956-1.831-2.844-0.887-0.887-1.781-1.438-2.831-1.844-1.019-0.394-2.181-0.669-3.881-0.744-1.712-0.081-2.256-0.1-6.6-0.1v0z"></path>
<path d="M16 7.781c-4.537 0-8.219 3.681-8.219 8.219s3.681 8.219 8.219 8.219 8.219-3.681 8.219-8.219c0-4.537-3.681-8.219-8.219-8.219zM16 21.331c-2.944 0-5.331-2.387-5.331-5.331s2.387-5.331 5.331-5.331c2.944 0 5.331 2.387 5.331 5.331s-2.387 5.331-5.331 5.331z"></path>
<path d="M26.462 7.456c0 1.060-0.859 1.919-1.919 1.919s-1.919-0.859-1.919-1.919c0-1.060 0.859-1.919 1.919-1.919s1.919 0.859 1.919 1.919z"></path>
</symbol>
<symbol id="icon-twitter" viewBox="0 0 32 32">
<path d="M32 7.075c-1.175 0.525-2.444 0.875-3.769 1.031 1.356-0.813 2.394-2.1 2.887-3.631-1.269 0.75-2.675 1.3-4.169 1.594-1.2-1.275-2.906-2.069-4.794-2.069-3.625 0-6.563 2.938-6.563 6.563 0 0.512 0.056 1.012 0.169 1.494-5.456-0.275-10.294-2.888-13.531-6.862-0.563 0.969-0.887 2.1-0.887 3.3 0 2.275 1.156 4.287 2.919 5.463-1.075-0.031-2.087-0.331-2.975-0.819 0 0.025 0 0.056 0 0.081 0 3.181 2.263 5.838 5.269 6.437-0.55 0.15-1.131 0.231-1.731 0.231-0.425 0-0.831-0.044-1.237-0.119 0.838 2.606 3.263 4.506 6.131 4.563-2.25 1.762-5.075 2.813-8.156 2.813-0.531 0-1.050-0.031-1.569-0.094 2.913 1.869 6.362 2.95 10.069 2.95 12.075 0 18.681-10.006 18.681-18.681 0-0.287-0.006-0.569-0.019-0.85 1.281-0.919 2.394-2.075 3.275-3.394z"></path>
</symbol>
<symbol id="icon-linkedin2" viewBox="0 0 32 32">
<path d="M12 12h5.535v2.837h0.079c0.77-1.381 2.655-2.837 5.464-2.837 5.842 0 6.922 3.637 6.922 8.367v9.633h-5.769v-8.54c0-2.037-0.042-4.657-3.001-4.657-3.005 0-3.463 2.218-3.463 4.509v8.688h-5.767v-18z"></path>
<path d="M2 12h6v18h-6v-18z"></path>
<path d="M8 7c0 1.657-1.343 3-3 3s-3-1.343-3-3c0-1.657 1.343-3 3-3s3 1.343 3 3z"></path>
</symbol>
<symbol id="icon-cerrar" viewBox="0 0 32 32">
<path d="M26.667 7.303l-1.97-1.97-7.808 7.808-7.808-7.808-1.97 1.97 7.808 7.808-7.808 7.808 1.97 1.97 7.808-7.808 7.808 7.808 1.97-1.97-7.808-7.808 7.808-7.808z"></path>
</symbol>
<symbol id="icon-enviar-footer" viewBox="0 0 32 32">
<path fill="#fff" style="fill: var(--color1, #fff)" d="M32 0l-32 18 10.227 3.787 15.773-14.787-11.997 16.187 0.009 0.003-0.012-0.003v8.813l5.735-6.691 7.267 2.691 4.999-28z"></path>
</symbol>
<symbol id="icon-correo-modal" viewBox="0 0 32 32">
<path d="M26.667 5.333h-21.333c-1.467 0-2.652 1.2-2.652 2.667l-0.014 16c0 1.467 1.2 2.667 2.667 2.667h21.333c1.467 0 2.667-1.2 2.667-2.667v-16c0-1.467-1.2-2.667-2.667-2.667zM26.133 11.001l-9.426 5.892c-0.201 0.126-0.446 0.2-0.708 0.2s-0.506-0.075-0.713-0.204l0.006 0.003-9.426-5.892c-0.336-0.201-0.557-0.562-0.557-0.975 0-0.625 0.507-1.132 1.132-1.132 0.233 0 0.449 0.070 0.629 0.19l-0.004-0.003 8.933 5.586 8.933-5.588c0.176-0.118 0.392-0.188 0.624-0.188 0.625 0 1.132 0.507 1.132 1.132 0 0.413-0.221 0.775-0.552 0.972l-0.005 0.003z"></path>
</symbol>
<symbol id="icon-telefono-modal" viewBox="0 0 32 32">
<path d="M24.882 19.774l-3.268-0.373c-0.090-0.011-0.194-0.018-0.3-0.018-0.707 0-1.347 0.287-1.81 0.75l-2.368 2.368c-3.669-1.894-6.585-4.81-8.427-8.372l-0.051-0.108 2.382-2.377c0.463-0.463 0.75-1.103 0.75-1.81 0-0.106-0.006-0.21-0.019-0.312l0.001 0.012-0.373-3.243c-0.155-1.287-1.24-2.276-2.557-2.276-0.001 0-0.002 0-0.003 0h-2.226c-1.454 0-2.663 1.209-2.574 2.661 0.683 10.987 9.47 19.762 20.444 20.444 1.452 0.089 2.663-1.12 2.663-2.574v-2.226c0-0.004 0-0.008 0-0.012 0-1.308-0.985-2.386-2.253-2.532l-0.012-0.001z"></path>
</symbol>
<symbol id="icon-persona-modal" viewBox="0 0 32 32">
<path d="M16 16c2.946 0 5.333-2.388 5.333-5.333s-2.388-5.333-5.333-5.333v0c-2.946 0-5.333 2.388-5.333 5.333s2.388 5.333 5.333 5.333v0zM16 18.667c-3.561 0-10.667 1.787-10.667 5.333v1.333c0 0.732 0.599 1.333 1.333 1.333h18.667c0.732 0 1.333-0.601 1.333-1.333v-1.333c0-3.547-7.108-5.333-10.667-5.333z"></path>
<symbol id="icon-icono-checked" viewBox="0 0 34 32">
<path fill="#2196f3" style="fill: var(--color1, #2196f3)" d="M4.267 0h25.6c2.356 0 4.267 1.91 4.267 4.267v23.467c0 2.356-1.91 4.267-4.267 4.267h-25.6c-2.356 0-4.267-1.91-4.267-4.267v-23.467c0-2.356 1.91-4.267 4.267-4.267z"></path>
<path fill="#fff" style="fill: var(--color2, #fff); stroke: var(--color2, #fff)" stroke="#fff" stroke-linejoin="miter" stroke-linecap="butt" stroke-miterlimit="4" stroke-width="0.4267" d="M8.442 16.538l-0.147-0.141-0.147 0.139-2.057 1.95 0.162 0.156 7.605 7.253 0.147-0.141 16.171-15.426-0.162-0.154-2.029-1.935-0.147 0.141-13.98 13.325-5.417-5.167z"></path>
</symbol>
</defs>
</svg>
